<?xml version="1.0" encoding="UTF-8" standalone="no"?>
<svg
   xmlns:dc="http://purl.org/dc/elements/1.1/"
   xmlns:cc="http://creativecommons.org/ns#"
   xmlns:rdf="http://www.w3.org/1999/02/22-rdf-syntax-ns#"
   xmlns:svg="http://www.w3.org/2000/svg"
   xmlns="http://www.w3.org/2000/svg"
   xmlns:sodipodi="http://sodipodi.sourceforge.net/DTD/sodipodi-0.dtd"
   xmlns:inkscape="http://www.inkscape.org/namespaces/inkscape"
   id="Layer_2"
   version="1.1"
   viewBox="0 0 381.7323 321.25984"
   xml:space="preserve"
   sodipodi:docname="orange-helicopter2.svg"
   inkscape:version="0.92.2 (5c3e80d, 2017-08-06)"
   width="101mm"
   height="85mm"><metadata
     id="metadata11"><rdf:RDF><cc:Work
         rdf:about=""><dc:format>image/svg+xml</dc:format><dc:type
           rdf:resource="http://purl.org/dc/dcmitype/StillImage" /><dc:title /></cc:Work></rdf:RDF></metadata><defs
     id="defs9" /><sodipodi:namedview
     pagecolor="#ffffff"
     bordercolor="#666666"
     borderopacity="1"
     objecttolerance="10"
     gridtolerance="10"
     guidetolerance="10"
     inkscape:pageopacity="0"
     inkscape:pageshadow="2"
     inkscape:window-width="1920"
     inkscape:window-height="1017"
     id="namedview7"
     showgrid="false"
     inkscape:zoom="0.82"
     inkscape:cx="290.85366"
     inkscape:cy="500"
     inkscape:window-x="-8"
     inkscape:window-y="-8"
     inkscape:window-maximized="1"
     inkscape:current-layer="layer3"
     units="mm"
     width="211mm" /><g
     inkscape:groupmode="layer"
     id="layer2"
     inkscape:label="Layer 1"
     style="display:inline"
     transform="translate(0,-678.74016)" /><g
     inkscape:groupmode="layer"
     id="layer3"
     inkscape:label="Layer 2"
     transform="translate(0,-678.74016)"><g
       transform="matrix(0.55273889,0,0,0.62178753,-84.900188,522.58593)"
       id="g3748"><g
         id="g3744"><path
           inkscape:connector-curvature="0"
           id="path3742"
           d="m 249.01082,710.53893 c -3.18815,-2.10239 -11.20172,-10.77883 -17.80792,-19.28099 -10.60188,-13.6446 -11.78163,-16.11549 -10.05419,-21.05761 1.33673,-3.82432 3.72301,-5.805 7.52828,-6.24864 4.67257,-0.54477 7.19676,1.50565 15.64911,12.71186 12.69366,16.82941 14.99702,18.65801 23.50215,18.65801 7.65243,0 7.46731,0.45299 11.039,-27.01271 l 1.72195,-13.24153 h -26.20045 c -31.0784,0 -32.61116,-0.53699 -59.96265,-21.00773 -11.06992,-8.28507 -22.51059,-15.65331 -25.42373,-16.37386 -8.65243,-2.14015 -14.83051,-9.17 -14.83051,-16.87521 0,-18.39386 8.75291,-27.54706 41.31356,-43.20297 23.16804,-11.1397 27.49145,-14.18896 48.72882,-34.36798 12.81779,-12.17902 25.32658,-23.21961 27.79731,-24.53463 2.47072,-1.31503 12.24297,-3.03734 21.7161,-3.82737 l 17.22387,-1.43642 v -10.13728 c 0,-13.53202 3.05066,-16.07954 21.11564,-17.63306 8.19572,-0.7048 21.62135,-1.85956 29.83472,-2.56614 l 14.93342,-1.28468 -0.63257,-10.7206 -0.63256,-10.72059 -27.54237,-11.46394 c -25.13507,-10.46195 -28.65344,-11.38504 -40.25424,-10.56128 l -12.71187,0.90266 -67.26695,-35.96704 c -36.99682,-19.78188 -67.26694,-37.13219 -67.26694,-38.55625 0,-4.40101 12.84259,-20.57923 15.49905,-19.52464 1.38018,0.54792 46.84205,23.89554 101.02637,51.88361 l 98.51695,50.88738 1.05932,-14.80851 c 0.81663,-11.41597 2.00148,-15.49658 5.17189,-17.81193 5.24455,-3.83009 7.60966,-3.77817 13.42449,0.2947 4.09705,2.86969 4.7087,5.20892 4.7087,18.00847 v 14.71038 l 10.06356,-0.0412 c 27.61181,-0.11286 224.39015,11.38974 226.69492,13.25137 3.02775,2.44561 3.62932,21.95035 0.7322,23.74087 -1.05387,0.65132 -35.54767,0.0391 -76.65292,-1.3604 l -74.7368,-2.54462 -10.49021,-7.216 c -9.49856,-6.53386 -13.21767,-7.58958 -39.34284,-11.16806 -39.43873,-5.40208 -36.26791,-5.9725 -36.26791,6.52443 v 10.59322 l 7.94492,-0.18447 c 4.3697,-0.10147 16.52542,-0.88577 27.01271,-1.7429 21.88418,-1.78861 27.94831,-0.35431 29.80665,7.04995 1.57827,6.28831 2.65077,6.47545 55.99844,9.77096 40.66252,2.51189 44.90019,3.88201 50.84745,16.43994 l 3.17797,6.71041 100.83689,0.0458 c 93.40834,0.0425 101.0783,-0.22728 104.11375,-3.66177 1.80226,-2.0392 10.12847,-20.54567 18.50267,-41.1255 16.58281,-40.75279 14.55267,-38.38826 35.27947,-41.09044 6.90633,-0.90039 11.36019,-0.59148 12.25089,0.84969 2.32887,3.76822 -21.91136,117.41481 -25.92647,121.5522 -2.86684,2.95415 -24.8718,6.23913 -116.87923,17.44815 -62.3411,7.59488 -116.48814,14.35045 -120.32674,15.0124 -10.96585,1.89099 -18.21767,10.36913 -36.98464,43.23894 -21.49871,37.65436 -25.16966,40.36455 -54.67358,40.36455 h -18.52191 l -3.53731,16.41949 c -1.94551,9.03072 -3.99811,18.04344 -4.56133,20.02825 -0.9374,3.30334 1.10097,3.5019 24.08593,2.34625 27.80267,-1.39791 34.43483,0.27591 34.43483,8.69063 0,2.72945 -1.37231,6.10157 -3.0496,7.49358 -2.16406,1.79602 -34.00059,3.39178 -109.63983,5.49555 -144.83755,4.02837 -153.91232,3.9853 -161.11568,-0.76485 z m 164.68134,-19.17396 36.00333,-1.34002 2.50277,-16.94915 c 1.37653,-9.32204 2.57439,-18.07818 2.66191,-19.45812 0.12118,-1.91072 -18.4061,-2.22106 -77.70102,-1.30152 -42.82309,0.66406 -78.20971,1.50705 -78.63694,1.87328 -1.13058,0.96919 -8.59944,33.06979 -8.68477,37.3265 -0.0769,3.83454 17.34321,3.81329 123.85472,-0.15106 z m -140.531,-79.20019 c 1.80056,-1.45657 6.8202,-8.60937 11.15475,-15.89509 10.38051,-17.44809 12.77998,-19.58639 22.02,-19.62343 13.73846,-0.0551 17.34855,-3.5328 27.24946,-26.25042 14.39132,-33.02081 14.37652,-33.04038 -24.96659,-33.04038 h -29.02766 l -10.38653,12.1822 c -25.73545,30.1847 -25.83309,30.3525 -28.15732,48.38502 -1.18835,9.21981 -2.61049,19.40496 -3.16032,22.63369 -1.62222,9.52606 4.91249,14.25671 19.69354,14.25671 6.76881,0 13.78011,-1.19173 15.58067,-2.6483 z m 149.61812,-77.83793 c 0.52144,-23.03682 0.12627,-26.80638 -3.05324,-29.13136 -4.99534,-3.65268 -47.42041,-3.67086 -51.87835,-0.0222 -4.14799,3.39493 -22.99786,46.18568 -22.99786,52.20699 0,4.52511 0.31543,4.55761 38.66525,3.98488 l 38.66526,-0.57746 z m 47.30979,21.69386 c 10.45784,-11.56328 10.38591,-11.2854 8.10889,-31.32453 -1.17707,-10.35904 -3.29858,-19.57076 -4.71447,-20.47048 -3.36042,-2.13538 -31.46915,-2.12262 -34.83529,0.0159 -1.95305,1.24073 -2.26697,8.6125 -1.26172,29.62857 l 1.33822,27.97682 h 13.04754 c 11.54386,0 13.65481,-0.67146 18.31683,-5.82627 z"
           style="fill:#ff6600;fill-opacity:1;stroke:#ff0000;stroke-width:2.12198043;stroke-miterlimit:4;stroke-dasharray:none;stroke-dashoffset:0;stroke-opacity:1" /></g><path
         style="fill:#ff6600;fill-opacity:1;stroke:#ff0000;stroke-width:2.12198043;stroke-miterlimit:4;stroke-dasharray:none;stroke-dashoffset:0;stroke-opacity:1"
         d="m 419.09896,403.47834 c 0.0855,-5.1557 8.73248,-12.285 75.1294,-61.94285 41.26804,-30.86412 75.88288,-56.39994 76.92186,-56.74626 2.9866,-0.99554 17.37699,16.07061 16.07624,19.06546 -0.64394,1.48263 -27.92748,23.43191 -60.6301,48.77619 l -59.4593,46.08051 -10.82582,0.0661 c -7.71479,0.0471 -13.26117,1.56609 -19.30039,5.28576 -11.71262,7.21399 -18.03776,7.00744 -17.91189,-0.58493 z"
         id="path3746"
         inkscape:connector-curvature="0" /></g></g></svg>